<svg width="39" height="39" viewBox="0 0 39 39" fill="none" xmlns="http://www.w3.org/2000/svg">
<rect x="0.00192261" width="38" height="38" rx="9" fill="#9CA6FF"/>
<path d="M1.10428 15.939C1.69211 11.0033 6.17009 7.47616 11.1061 8.0609L31.0667 10.4255C36.0027 11.0103 39.5277 15.4854 38.9398 20.4211L37.8996 29.1555C37.3118 34.0911 32.8338 37.6183 27.8977 37.0335L7.93718 34.6689C3.00114 34.0842 -0.523794 29.609 0.0640356 24.6733L1.10428 15.939Z" fill="#61E4BF"/>
<path d="M0.00192261 30.9021C0.00192261 26.967 2.94885 23.6556 6.85734 23.1987L28.1893 20.7054C33.6312 20.0693 38.3738 24.4095 38.2308 29.8866C38.1035 34.764 34.1128 38.6579 29.2337 38.6579H7.75773C3.47432 38.6579 0.00192261 35.1855 0.00192261 30.9021Z" fill="#FF4B66"/>
<path d="M7.00192 33L9.39236 35.6877" stroke="white" stroke-width="2" stroke-linecap="round"/>
<path d="M9.67267 35.6237L17.6727 28.6237" stroke="white" stroke-width="2" stroke-linecap="round"/>
</svg>
