<svg width="105" height="44" viewBox="0 0 105 44" fill="none" xmlns="http://www.w3.org/2000/svg">
<path d="M64.7695 4.125C64.7695 4.59375 64.6328 4.97786 64.3594 5.27734C64.099 5.57682 63.7409 5.77865 63.2852 5.88281C62.556 6.03906 61.8073 6.1237 61.0391 6.13672C60.2839 6.13672 59.5352 6.15625 58.793 6.19531V10.0625C58.793 13.3438 58.8906 16.6185 59.0859 19.8867C59.2943 23.1419 59.6263 26.4036 60.082 29.6719C60.1211 29.8672 60.1602 30.0625 60.1992 30.2578C60.2513 30.4531 60.2773 30.6484 60.2773 30.8438C60.2773 31.1562 60.1927 31.3841 60.0234 31.5273C59.8672 31.6706 59.6393 31.7422 59.3398 31.7422C59.1055 31.7422 58.8125 31.7096 58.4609 31.6445C58.1224 31.5924 57.8555 31.5078 57.6602 31.3906C57.3997 31.2344 57.2305 31.0781 57.1523 30.9219C57.0872 30.7526 57.0352 30.5312 56.9961 30.2578C56.8529 29.3333 56.7552 28.4089 56.7031 27.4844C56.651 26.5599 56.5924 25.6354 56.5273 24.7109C56.3711 22.7318 56.2409 20.7591 56.1367 18.793C56.0326 16.8268 55.9805 14.8542 55.9805 12.875C55.9805 11.7943 55.987 10.7201 56 9.65234C56.013 8.58464 56.0195 7.4974 56.0195 6.39062C55.2122 6.46875 54.3984 6.54688 53.5781 6.625C52.7708 6.70312 51.957 6.74219 51.1367 6.74219C50.9414 6.74219 50.7852 6.69661 50.668 6.60547C50.5378 6.5013 50.4727 6.35156 50.4727 6.15625C50.4727 5.70052 50.6224 5.34896 50.9219 5.10156C51.2214 4.84115 51.5794 4.65885 51.9961 4.55469C52.6602 4.41146 53.3372 4.32031 54.0273 4.28125C54.7174 4.22917 55.4076 4.16406 56.0977 4.08594C56.0977 3.95573 56.1042 3.83203 56.1172 3.71484C56.1302 3.58464 56.1562 3.47396 56.1953 3.38281C56.2474 3.27865 56.319 3.19401 56.4102 3.12891C56.5013 3.0638 56.6315 3.03125 56.8008 3.03125C57.1133 3.03125 57.4323 3.10286 57.7578 3.24609C58.0833 3.38932 58.3372 3.59115 58.5195 3.85156L61.7617 3.5C62.0742 3.46094 62.3867 3.42188 62.6992 3.38281C63.0117 3.33073 63.3242 3.30469 63.6367 3.30469C63.7799 3.30469 63.9167 3.3112 64.0469 3.32422C64.1901 3.33724 64.3138 3.3763 64.418 3.44141C64.5221 3.49349 64.6068 3.57812 64.6719 3.69531C64.737 3.79948 64.7695 3.94271 64.7695 4.125ZM71.625 30.7461C71.625 31.0065 71.5599 31.1823 71.4297 31.2734C71.2995 31.3776 71.1172 31.4297 70.8828 31.4297C70.2708 31.4297 69.8281 31.2669 69.5547 30.9414C69.2943 30.6159 69.099 30.1862 68.9688 29.6523C68.9297 29.4701 68.8906 29.2878 68.8516 29.1055C68.8125 28.9102 68.7799 28.7214 68.7539 28.5391C68.7279 28.3698 68.7018 28.2526 68.6758 28.1875C68.6497 28.1224 68.6237 27.9987 68.5977 27.8164C68.4414 28.194 68.2461 28.5911 68.0117 29.0078C67.7904 29.4115 67.5299 29.7891 67.2305 30.1406C66.931 30.4792 66.5924 30.7591 66.2148 30.9805C65.8503 31.2018 65.4466 31.3125 65.0039 31.3125C64.5352 31.3125 64.1445 31.2018 63.832 30.9805C63.5195 30.7461 63.2721 30.4596 63.0898 30.1211C62.9206 29.7695 62.7969 29.3854 62.7188 28.9688C62.6536 28.5521 62.6211 28.1549 62.6211 27.7773C62.6211 26.8919 62.7057 25.9349 62.875 24.9062C63.0573 23.8646 63.3047 22.8294 63.6172 21.8008C63.9297 20.7591 64.2943 19.763 64.7109 18.8125C65.1276 17.849 65.5833 17.0091 66.0781 16.293V16.3125L66.1953 16.1367C66.3385 15.9414 66.5013 15.7331 66.6836 15.5117C66.8789 15.2773 67.1068 15.1602 67.3672 15.1602C67.6146 15.1602 67.8294 15.2708 68.0117 15.4922C68.194 15.7005 68.3242 15.9219 68.4023 16.1562C68.7409 16.2214 69.0143 16.306 69.2227 16.4102C69.431 16.5013 69.5938 16.6185 69.7109 16.7617C69.8281 16.9049 69.9062 17.0742 69.9453 17.2695C69.9844 17.4518 70.0039 17.6536 70.0039 17.875C70.0039 17.9661 70.0039 18.0638 70.0039 18.168C70.0039 18.2721 69.9974 18.3763 69.9844 18.4805C69.9714 18.5846 69.9648 18.7083 69.9648 18.8516C69.9648 18.9948 69.9648 19.125 69.9648 19.2422C69.9648 19.3724 69.9844 19.5417 70.0234 19.75C70.0755 19.9583 70.1276 20.1732 70.1797 20.3945L70.3164 21.1172C70.3815 21.4948 70.4336 21.9245 70.4727 22.4062C70.5247 22.888 70.5833 23.3698 70.6484 23.8516C70.7005 24.3464 70.7526 24.8281 70.8047 25.2969C70.8568 25.7526 70.9089 26.1758 70.9609 26.5664L71.4297 29.457L71.4883 29.7891C71.5143 29.9583 71.5404 30.1146 71.5664 30.2578C71.6055 30.401 71.625 30.5638 71.625 30.7461ZM67.1523 19.5156C67.1523 19.4896 67.1458 19.4505 67.1328 19.3984C67.1198 19.3333 67.1068 19.2682 67.0938 19.2031C66.7943 19.8411 66.5273 20.5378 66.293 21.293C66.0716 22.0352 65.8828 22.7969 65.7266 23.5781C65.5833 24.3464 65.4727 25.1211 65.3945 25.9023C65.3294 26.6706 65.2969 27.3997 65.2969 28.0898C65.2969 28.1549 65.2969 28.2135 65.2969 28.2656C65.2969 28.3177 65.3034 28.3698 65.3164 28.4219V28.4414C65.6289 27.9596 65.8958 27.3281 66.1172 26.5469C66.3516 25.7526 66.5469 24.9258 66.7031 24.0664C66.8594 23.194 66.9701 22.3542 67.0352 21.5469C67.1133 20.7266 67.1523 20.0495 67.1523 19.5156ZM79.4961 16.6836C79.4961 16.8398 79.4375 16.9701 79.3203 17.0742C79.2161 17.1784 79.0859 17.2695 78.9297 17.3477C78.7734 17.4128 78.6107 17.4583 78.4414 17.4844C78.2852 17.5104 78.1549 17.5234 78.0508 17.5234C77.8945 17.5234 77.7448 17.5104 77.6016 17.4844C77.4583 17.4453 77.3151 17.4062 77.1719 17.3672C77.0286 17.3281 76.8919 17.2956 76.7617 17.2695C76.6315 17.2305 76.4948 17.2109 76.3516 17.2109C76.1562 17.2109 75.9609 17.2435 75.7656 17.3086C75.5703 17.3737 75.3945 17.4648 75.2383 17.582C75.082 17.6992 74.9518 17.8424 74.8477 18.0117C74.7565 18.181 74.7109 18.3698 74.7109 18.5781C74.7109 18.8906 74.776 19.2031 74.9062 19.5156C75.0365 19.8151 75.2057 20.1211 75.4141 20.4336C75.6354 20.7461 75.8828 21.0651 76.1562 21.3906C76.4427 21.7031 76.7422 22.0221 77.0547 22.3477C77.4323 22.7643 77.8099 23.1875 78.1875 23.6172C78.5781 24.0469 78.9232 24.4961 79.2227 24.9648C79.5352 25.4336 79.7891 25.9284 79.9844 26.4492C80.1797 26.9701 80.2773 27.5169 80.2773 28.0898C80.2773 28.5846 80.1927 29.0273 80.0234 29.418C79.8672 29.8086 79.6393 30.1406 79.3398 30.4141C79.0534 30.6875 78.7018 30.8958 78.2852 31.0391C77.8815 31.1953 77.4388 31.2734 76.957 31.2734C76.8268 31.2734 76.625 31.2474 76.3516 31.1953C76.0911 31.1432 75.7917 31.0716 75.4531 30.9805C75.1146 30.8763 74.763 30.7656 74.3984 30.6484C74.0469 30.5312 73.7214 30.4076 73.4219 30.2773C73.1354 30.1341 72.8945 29.9974 72.6992 29.8672C72.5169 29.724 72.4258 29.5938 72.4258 29.4766C72.4258 29.3203 72.4974 29.1641 72.6406 29.0078C72.7839 28.8385 72.9531 28.6888 73.1484 28.5586C73.3438 28.4154 73.5456 28.2982 73.7539 28.207C73.9753 28.1159 74.1576 28.0703 74.3008 28.0703C74.4961 28.0703 74.6979 28.1159 74.9062 28.207C75.1276 28.2982 75.349 28.4023 75.5703 28.5195C75.8177 28.6497 76.0651 28.7669 76.3125 28.8711C76.5729 28.9753 76.8398 29.0273 77.1133 29.0273C77.3216 29.0273 77.4388 28.9557 77.4648 28.8125C77.5039 28.6693 77.5234 28.5065 77.5234 28.3242C77.5234 27.8685 77.4453 27.4388 77.2891 27.0352C77.1328 26.6185 76.931 26.2148 76.6836 25.8242C76.4362 25.4336 76.1497 25.056 75.8242 24.6914C75.4987 24.3138 75.1732 23.9427 74.8477 23.5781C74.5091 23.2135 74.1771 22.849 73.8516 22.4844C73.5391 22.1198 73.2591 21.7487 73.0117 21.3711C72.7643 20.9805 72.5625 20.5833 72.4062 20.1797C72.263 19.776 72.1914 19.3464 72.1914 18.8906C72.1914 18.3307 72.3151 17.8294 72.5625 17.3867C72.8099 16.931 73.1289 16.5404 73.5195 16.2148C73.9232 15.8893 74.3724 15.6419 74.8672 15.4727C75.375 15.2904 75.8828 15.1992 76.3906 15.1992C76.5599 15.1992 76.8203 15.2383 77.1719 15.3164C77.5234 15.3815 77.8685 15.4792 78.207 15.6094C78.5456 15.7396 78.8451 15.8958 79.1055 16.0781C79.3659 16.2604 79.4961 16.4622 79.4961 16.6836ZM90.8438 31.293C90.8438 31.4362 90.7656 31.5664 90.6094 31.6836C90.4531 31.8008 90.2708 31.8984 90.0625 31.9766C89.8672 32.0547 89.6654 32.1133 89.457 32.1523C89.2487 32.2044 89.0859 32.2305 88.9688 32.2305C88.7474 32.2305 88.5456 32.1849 88.3633 32.0938C88.181 32.0156 88.0117 31.9115 87.8555 31.7812C87.6992 31.651 87.5495 31.5078 87.4062 31.3516C87.276 31.1953 87.1523 31.0391 87.0352 30.8828C86.5794 30.3229 86.1107 29.6979 85.6289 29.0078C85.1471 28.3177 84.7174 27.6602 84.3398 27.0352C84.3398 27.0872 84.3464 27.1523 84.3594 27.2305C84.3724 27.3086 84.3789 27.3737 84.3789 27.4258C84.4049 27.6992 84.4245 27.9727 84.4375 28.2461C84.4635 28.5065 84.4961 28.7734 84.5352 29.0469C84.5482 29.2031 84.5612 29.3594 84.5742 29.5156C84.6003 29.6589 84.6263 29.8151 84.6523 29.9844C84.6784 30.1927 84.7044 30.401 84.7305 30.6094C84.7565 30.8177 84.7695 31.0326 84.7695 31.2539C84.7695 31.5273 84.6914 31.7096 84.5352 31.8008C84.3789 31.9049 84.1706 31.957 83.9102 31.957C83.7279 31.957 83.5326 31.944 83.3242 31.918C83.1159 31.8919 82.9141 31.8398 82.7188 31.7617C82.5234 31.6836 82.3477 31.5794 82.1914 31.4492C82.0352 31.319 81.918 31.1497 81.8398 30.9414C81.8008 30.7852 81.7617 30.4922 81.7227 30.0625C81.6836 29.6328 81.651 29.1576 81.625 28.6367C81.599 28.1029 81.5729 27.569 81.5469 27.0352C81.5339 26.5013 81.5208 26.0586 81.5078 25.707C81.5078 25.6289 81.5013 25.5638 81.4883 25.5117C81.4883 25.4596 81.4883 25.4076 81.4883 25.3555C81.3841 25.2643 81.293 25.1536 81.2148 25.0234C81.1367 24.8932 81.0977 24.7695 81.0977 24.6523C81.0977 24.4831 81.1302 24.3333 81.1953 24.2031C81.2604 24.0729 81.332 23.9492 81.4102 23.832C81.332 22.2305 81.293 20.6354 81.293 19.0469C81.293 17.7318 81.306 16.4297 81.332 15.1406C81.3711 13.8385 81.4036 12.5365 81.4297 11.2344L81.4883 8.61719C81.5013 8.48698 81.5078 8.31771 81.5078 8.10938C81.5078 7.90104 81.5078 7.67969 81.5078 7.44531C81.5078 7.15885 81.5078 6.85938 81.5078 6.54688C81.5078 6.23438 81.5143 5.94141 81.5273 5.66797C81.5404 5.39453 81.5534 5.14714 81.5664 4.92578C81.5794 4.70443 81.6055 4.54167 81.6445 4.4375V4.45703C81.6966 4.26172 81.7682 4.11849 81.8594 4.02734C81.9505 3.9362 82.1068 3.89062 82.3281 3.89062C82.875 3.89062 83.2982 4.05339 83.5977 4.37891C83.8971 4.70443 84.0469 5.14062 84.0469 5.6875C84.0469 6.5599 84.0404 7.43229 84.0273 8.30469C84.0273 9.16406 84.0208 10.0299 84.0078 10.9023C83.9948 11.7747 83.9818 12.6471 83.9688 13.5195C83.9688 14.3789 83.9688 15.2448 83.9688 16.1172C83.9688 16.4297 83.9688 16.7487 83.9688 17.0742C83.9818 17.3867 83.9883 17.7057 83.9883 18.0312C84.0013 18.2917 84.0078 18.5586 84.0078 18.832C84.0078 19.1055 84.0078 19.3919 84.0078 19.6914L86.1172 16.332V16.3516L86.293 16C86.332 15.9349 86.3516 15.8893 86.3516 15.8633C86.3646 15.8372 86.3776 15.8047 86.3906 15.7656C86.4167 15.7135 86.4622 15.6354 86.5273 15.5312C86.6055 15.4271 86.7357 15.2708 86.918 15.0625C86.9831 14.9974 87.0612 14.9388 87.1523 14.8867C87.2435 14.8346 87.3607 14.8086 87.5039 14.8086C87.6471 14.8086 87.7904 14.8542 87.9336 14.9453C88.0898 15.0234 88.2266 15.1276 88.3438 15.2578C88.4609 15.388 88.5586 15.5312 88.6367 15.6875C88.7148 15.8438 88.7539 15.987 88.7539 16.1172C88.7539 16.2214 88.6953 16.4036 88.5781 16.6641C88.4609 16.9115 88.3047 17.2174 88.1094 17.582C87.9271 17.9466 87.7188 18.3438 87.4844 18.7734C87.25 19.1901 87.0026 19.6133 86.7422 20.043C86.4948 20.4727 86.2539 20.8893 86.0195 21.293C85.7852 21.6966 85.5768 22.0547 85.3945 22.3672L84.8867 23.1875C85.1862 23.7083 85.5312 24.2878 85.9219 24.9258C86.3255 25.5508 86.7487 26.1823 87.1914 26.8203C87.6341 27.4583 88.0833 28.0703 88.5391 28.6562C89.0078 29.2422 89.4635 29.7565 89.9062 30.1992L90.1016 30.3555C90.2578 30.4727 90.4206 30.6159 90.5898 30.7852C90.7591 30.9414 90.8438 31.1107 90.8438 31.293ZM95.6289 31.5664C95.6289 31.7487 95.5833 31.8984 95.4922 32.0156C95.401 32.1328 95.2839 32.224 95.1406 32.2891C95.0104 32.3672 94.8607 32.4193 94.6914 32.4453C94.5352 32.4844 94.3919 32.5039 94.2617 32.5039C93.806 32.5039 93.4089 32.3737 93.0703 32.1133C92.7318 31.8529 92.4388 31.5143 92.1914 31.0977C91.944 30.694 91.7422 30.2318 91.5859 29.7109C91.4297 29.1771 91.2995 28.6497 91.1953 28.1289C91.0911 27.5951 91.013 27.0872 90.9609 26.6055C90.9089 26.1107 90.8698 25.6875 90.8438 25.3359C90.7266 24.125 90.6419 22.8945 90.5898 21.6445C90.5508 20.3945 90.5312 19.1576 90.5312 17.9336C90.5312 14.5872 90.6484 11.2734 90.8828 7.99219C90.8828 7.9401 90.8828 7.88151 90.8828 7.81641C90.8958 7.7513 90.9023 7.6862 90.9023 7.62109C90.9154 7.34766 90.9284 7.03516 90.9414 6.68359C90.9544 6.31901 90.974 5.96094 91 5.60938C91.026 5.25781 91.0521 4.9388 91.0781 4.65234C91.1172 4.35286 91.1628 4.14453 91.2148 4.02734V4.04688C91.2669 3.86458 91.3385 3.72786 91.4297 3.63672C91.5208 3.54557 91.6771 3.5 91.8984 3.5C92.3672 3.5 92.7643 3.65625 93.0898 3.96875C93.4154 4.28125 93.5781 4.67188 93.5781 5.14062C93.5781 5.24479 93.5716 5.34896 93.5586 5.45312C93.5586 5.54427 93.5521 5.63542 93.5391 5.72656C93.526 5.81771 93.513 5.90885 93.5 6C93.5 6.07812 93.5 6.14974 93.5 6.21484C93.4609 6.72266 93.4284 7.23047 93.4023 7.73828C93.3893 8.23307 93.3698 8.73438 93.3438 9.24219C93.2786 10.362 93.2266 11.4818 93.1875 12.6016C93.1615 13.7083 93.1484 14.8281 93.1484 15.9609C93.1484 16.4427 93.1549 17.0742 93.168 17.8555C93.181 18.6367 93.207 19.4896 93.2461 20.4141C93.2852 21.3255 93.3372 22.2695 93.4023 23.2461C93.4805 24.2227 93.5781 25.1536 93.6953 26.0391C93.8125 26.9245 93.9492 27.7253 94.1055 28.4414C94.2747 29.1576 94.4701 29.7109 94.6914 30.1016C94.8086 30.1536 94.9193 30.2383 95.0234 30.3555C95.1406 30.4596 95.2383 30.5833 95.3164 30.7266C95.4076 30.8568 95.4792 30.9935 95.5312 31.1367C95.5964 31.293 95.6289 31.4362 95.6289 31.5664ZM103.578 32.3281C103.578 32.862 103.559 33.4219 103.52 34.0078C103.48 34.5938 103.415 35.1797 103.324 35.7656C103.233 36.3646 103.109 36.9505 102.953 37.5234C102.797 38.0964 102.602 38.6302 102.367 39.125C101.977 39.8542 101.482 40.4922 100.883 41.0391C100.297 41.599 99.6523 42.0677 98.9492 42.4453C98.2461 42.8229 97.4974 43.1094 96.7031 43.3047C95.9089 43.5 95.1081 43.5977 94.3008 43.5977C94.1836 43.5977 94.0469 43.5911 93.8906 43.5781C93.7214 43.5651 93.5586 43.5326 93.4023 43.4805C93.2461 43.4414 93.1159 43.3698 93.0117 43.2656C92.9076 43.1615 92.8555 43.0182 92.8555 42.8359C92.8555 42.7578 92.875 42.6797 92.9141 42.6016C92.9141 42.5755 92.9206 42.5495 92.9336 42.5234C92.9336 42.5104 92.9336 42.4974 92.9336 42.4844C93.0247 42.224 93.1289 42.0156 93.2461 41.8594C93.3633 41.7031 93.5 41.5794 93.6562 41.4883C93.7995 41.4102 93.9753 41.3516 94.1836 41.3125C94.3789 41.2865 94.6068 41.2604 94.8672 41.2344C95.7005 41.1953 96.4883 41 97.2305 40.6484V40.668C98.0768 40.2513 98.7409 39.7305 99.2227 39.1055C99.7174 38.4935 100.089 37.8099 100.336 37.0547C100.596 36.3125 100.759 35.5247 100.824 34.6914C100.889 33.8581 100.922 33.0182 100.922 32.1719C100.922 31.9766 100.922 31.8333 100.922 31.7422C100.922 31.651 100.922 31.5664 100.922 31.4883C100.922 31.4232 100.922 31.3451 100.922 31.2539C100.922 31.1628 100.915 31.0195 100.902 30.8242C100.447 31.1758 99.9714 31.3516 99.4766 31.3516C98.9036 31.3516 98.4154 31.1953 98.0117 30.8828C97.6211 30.5573 97.2891 30.1406 97.0156 29.6328C96.7552 29.112 96.5469 28.526 96.3906 27.875C96.2474 27.2109 96.1367 26.5404 96.0586 25.8633C95.9935 25.1732 95.9479 24.5026 95.9219 23.8516C95.9089 23.2005 95.9023 22.6211 95.9023 22.1133V21.293C95.9023 20.6029 95.9023 19.9258 95.9023 19.2617C95.9154 18.5977 95.9414 17.9336 95.9805 17.2695V16.9766C95.9805 16.8203 95.9805 16.6641 95.9805 16.5078C95.9805 16.3516 95.9935 16.2018 96.0195 16.0586C96.0716 15.8503 96.1432 15.7005 96.2344 15.6094C96.3385 15.5182 96.5013 15.4727 96.7227 15.4727C96.8268 15.4727 96.9245 15.4792 97.0156 15.4922C97.1198 15.5052 97.224 15.5247 97.3281 15.5508C97.5755 15.6549 97.7708 15.7656 97.9141 15.8828C98.0573 15.987 98.1615 16.1172 98.2266 16.2734C98.3047 16.4167 98.3503 16.5859 98.3633 16.7812C98.3893 16.9766 98.4023 17.2044 98.4023 17.4648V20.082C98.4023 20.3945 98.4023 20.7852 98.4023 21.2539C98.4154 21.7096 98.4349 22.2109 98.4609 22.7578C98.487 23.3047 98.5195 23.8711 98.5586 24.457C98.5977 25.043 98.6562 25.6094 98.7344 26.1562C98.8125 26.7031 98.9036 27.2044 99.0078 27.6602C99.112 28.1159 99.2422 28.4935 99.3984 28.793C99.6328 28.2852 99.8346 27.6927 100.004 27.0156C100.173 26.3255 100.31 25.5898 100.414 24.8086C100.531 24.0143 100.616 23.2005 100.668 22.3672C100.733 21.5339 100.779 20.7201 100.805 19.9258C100.844 19.1315 100.863 18.3828 100.863 17.6797C100.876 16.9635 100.883 16.3385 100.883 15.8047C100.883 15.6745 100.883 15.5378 100.883 15.3945C100.896 15.2383 100.928 15.1016 100.98 14.9844C101.033 14.8542 101.104 14.75 101.195 14.6719C101.299 14.5938 101.449 14.5547 101.645 14.5547C101.736 14.5547 101.833 14.5677 101.938 14.5938C102.055 14.6198 102.152 14.6458 102.23 14.6719C102.257 14.6719 102.283 14.6784 102.309 14.6914C102.348 14.6914 102.38 14.6914 102.406 14.6914C102.589 14.7565 102.764 14.8216 102.934 14.8867C103.103 14.9518 103.246 15.0365 103.363 15.1406C103.493 15.2318 103.591 15.3555 103.656 15.5117C103.734 15.668 103.773 15.8698 103.773 16.1172C103.773 16.4167 103.767 16.7617 103.754 17.1523C103.754 17.5299 103.741 17.9271 103.715 18.3438C103.702 18.7604 103.682 19.1706 103.656 19.5742C103.63 19.9648 103.604 20.3164 103.578 20.6289L103.5 21.3125C103.474 21.4948 103.454 21.6771 103.441 21.8594C103.428 22.0417 103.422 22.2109 103.422 22.3672C103.422 23.2005 103.428 24.0339 103.441 24.8672C103.454 25.6875 103.474 26.5143 103.5 27.3477C103.526 28.181 103.546 29.0143 103.559 29.8477C103.572 30.668 103.578 31.4948 103.578 32.3281Z" fill="black"/>
<rect x="0.00192261" width="38" height="38" rx="9" fill="#9CA6FF"/>
<path fill-rule="evenodd" clip-rule="evenodd" d="M11.1061 8.0609C6.17009 7.47616 1.69211 11.0033 1.10428 15.939L0.0640356 24.6733C-0.0799867 25.8826 0.0228733 27.0642 0.332882 28.1677V29.0021C0.332882 33.9727 4.36231 38.0021 9.33288 38.0021H29.4344C34.405 38.0021 38.4344 33.9727 38.4344 29.0021V24.6648L38.9398 20.4211C39.5277 15.4854 36.0027 11.0103 31.0667 10.4255L11.1061 8.0609Z" fill="#61E4BF"/>
<path d="M0.00192261 30.9021C0.00192261 26.967 2.94885 23.6556 6.85734 23.1987L28.1893 20.7054C33.6312 20.0693 38.3738 24.4095 38.2308 29.8866C38.1035 34.764 34.1128 38.6579 29.2337 38.6579H7.75773C3.47432 38.6579 0.00192261 35.1855 0.00192261 30.9021Z" fill="#FF4B66"/>
<path d="M7.00192 33L9.39236 35.6877" stroke="white" stroke-width="2" stroke-linecap="round"/>
<path d="M9.67267 35.6237L17.6727 28.6237" stroke="white" stroke-width="2" stroke-linecap="round"/>
</svg>
