<svg width="18" height="16" viewBox="0 0 18 16" fill="none" xmlns="http://www.w3.org/2000/svg">
<path d="M1 10C0.716667 10 0.479167 9.90417 0.2875 9.7125C0.0958333 9.52083 0 9.28333 0 9C0 8.71667 0.0958333 8.47917 0.2875 8.2875C0.479167 8.09583 0.716667 8 1 8H6C6.28333 8 6.52083 8.09583 6.7125 8.2875C6.90417 8.47917 7 8.71667 7 9C7 9.28333 6.90417 9.52083 6.7125 9.7125C6.52083 9.90417 6.28333 10 6 10H1ZM1 6C0.716667 6 0.479167 5.90417 0.2875 5.7125C0.0958333 5.52083 0 5.28333 0 5C0 4.71667 0.0958333 4.47917 0.2875 4.2875C0.479167 4.09583 0.716667 4 1 4H10C10.2833 4 10.5208 4.09583 10.7125 4.2875C10.9042 4.47917 11 4.71667 11 5C11 5.28333 10.9042 5.52083 10.7125 5.7125C10.5208 5.90417 10.2833 6 10 6H1ZM1 2C0.716667 2 0.479167 1.90417 0.2875 1.7125C0.0958333 1.52083 0 1.28333 0 1C0 0.716667 0.0958333 0.479167 0.2875 0.2875C0.479167 0.0958333 0.716667 0 1 0H10C10.2833 0 10.5208 0.0958333 10.7125 0.2875C10.9042 0.479167 11 0.716667 11 1C11 1.28333 10.9042 1.52083 10.7125 1.7125C10.5208 1.90417 10.2833 2 10 2H1ZM9 15V13.35C9 13.2167 9.025 13.0875 9.075 12.9625C9.125 12.8375 9.2 12.725 9.3 12.625L14.525 7.425C14.675 7.275 14.8417 7.16667 15.025 7.1C15.2083 7.03333 15.3917 7 15.575 7C15.775 7 15.9667 7.0375 16.15 7.1125C16.3333 7.1875 16.5 7.3 16.65 7.45L17.575 8.375C17.7083 8.525 17.8125 8.69167 17.8875 8.875C17.9625 9.05833 18 9.24167 18 9.425C18 9.60833 17.9667 9.79583 17.9 9.9875C17.8333 10.1792 17.725 10.35 17.575 10.5L12.375 15.7C12.275 15.8 12.1625 15.875 12.0375 15.925C11.9125 15.975 11.7833 16 11.65 16H10C9.71667 16 9.47917 15.9042 9.2875 15.7125C9.09583 15.5208 9 15.2833 9 15ZM10.5 14.5H11.45L14.475 11.45L14.025 10.975L13.55 10.525L10.5 13.55V14.5ZM14.025 10.975L13.55 10.525L14.475 11.45L14.025 10.975Z" fill="black"/>
</svg>
